<svg width="353" height="113" viewBox="0 0 353 113" fill="none" xmlns="http://www.w3.org/2000/svg">
<path d="M99.9495 73.3199L82.849 73.1849L65.4053 73.0472M65.4053 73.0472L14.7561 72.6472C11.2916 72.6199 9.49787 68.5006 11.838 65.9457L57.1379 16.487C60.2316 13.1093 65.8611 15.3234 65.8249 19.9036L65.4053 73.0472ZM65.4053 73.0472L65.1126 110.122" stroke="#E74B3C" stroke-width="20"/>
<path d="M351.459 75.306L334.359 75.171L316.915 75.0332M316.915 75.0332L266.266 74.6333C262.801 74.606 261.008 70.4867 263.348 67.9318L308.648 18.4731C311.741 15.0954 317.371 17.3094 317.335 21.8897L316.915 75.0332ZM316.915 75.0332L316.622 112.108" stroke="#E74B3C" stroke-width="20"/>
<path d="M224.47 56.9709C224.278 81.2719 203.876 101.217 178.398 101.016C152.921 100.815 132.836 80.5499 133.028 56.2489C133.22 31.9479 153.622 12.0028 179.099 12.2039C204.577 12.4051 224.661 32.6699 224.47 56.9709Z" stroke="#E74B3C" stroke-width="20"/>
</svg>
